<svg version="1.1" xmlns="http://www.w3.org/2000/svg" xmlns:xlink="http://www.w3.org/1999/xlink" preserveAspectRatio="xMidYMid meet" viewBox="736 408 325 128">
<g data-item-type="text" data-item="Business" id="logo__item--business" class="logo__item">
            </g><g data-item-type="image" data-item="Image" data-logo-item="" id="logo__item--logo_0" class="logo__item">
    <g class="logo__item__inner" transform="translate(831.5652031111393 381.5) scale(1.4717875202587127 1.4717875202587127) rotate(0 0 0)">
        
<g>
	<path fill="#D0D2D3" d="M83.021,80.65c0,0.813-7.778,1.467-17.373,1.467c-9.597,0-17.374-0.654-17.374-1.467   c0-0.807,7.777-1.461,17.374-1.461C75.242,79.189,83.021,79.844,83.021,80.65z" data-part-id="logo__item--logo_0__0"></path>
	<g>
		<path fill="#4AAE48" d="M87.444,65.252c-0.692-1.51-1.184-3.655-3.113-3.968c-2.101-0.56-3.949,0.679-5.576,1.83    c-8.67,0.006-16.965,2.982-25.096,5.669c-1.485-2.336,0.206-4.854,0.684-7.24c9.607-2.754,19.294-5.229,28.865-8.131    c2.902-0.734,2.88-4.152,3.267-6.528c0.912-7.992,1.927-15.988,2.461-24.01c0.196-2.116-2.176-3.062-3.868-2.165    c-14.106,5.061-28.176,10.224-42.252,15.357c-0.943-1.522-1.722-3.155-2.881-4.529c-1.419-0.718-2.893,0.157-4.26,0.556    c-1.894,0.73-3.886,1.316-5.583,2.451c-1.247,1.087-0.701,3.563,1.069,3.666c2.113-0.308,4.016-1.618,6.181-1.564    c4.786,7.809,8.959,15.997,13.59,23.899c-0.815,2.135-0.482,5.173-2.784,6.356c-4.976,2.633-5.289,11.924,0.556,13.757    c3.398-1.167,5.085-4.461,5.864-7.736c7.337-1.969,14.669-4.509,22.35-4.535c0.515,2.536,1.024,6.406,4.349,6.563    c2.513,0.404,3.862-2.062,5.235-3.678c2.276-0.658,4.27-2.262,4.155-4.843C89.585,66.024,88.513,65.639,87.444,65.252z     M54.271,44.508c1.262-0.441,2.523-0.888,3.786-1.332c0.006,1.416,0.006,2.823,0.014,4.242c-1.219,0.399-2.442,0.788-3.655,1.19    C54.36,47.237,54.313,45.873,54.271,44.508z M58.038,56.277c-1.156,0.284-2.316,0.567-3.473,0.863    c-0.072-1.364-0.136-2.723-0.198-4.088c1.237-0.375,2.475-0.742,3.713-1.135C58.07,53.37,58.057,54.825,58.038,56.277z     M79.319,27.744c1.678-0.556,3.354-1.136,5.03-1.715c-0.03,0.525-0.103,1.582-0.136,2.113c-1.713,0.689-3.409,1.404-5.109,2.135    C79.174,29.422,79.246,28.583,79.319,27.744z M78.661,35.48c1.618-0.641,3.236-1.292,4.864-1.951    c-0.076,1.643-0.15,3.286-0.238,4.928c-1.652,0.665-3.311,1.311-4.967,1.951C78.431,38.765,78.54,37.122,78.661,35.48z     M77.875,45.604c1.58-0.58,3.158-1.132,4.754-1.681c-0.122,1.657-0.254,3.315-0.375,4.982c-1.57,0.585-3.158,1.12-4.734,1.66    C77.628,48.904,77.749,47.256,77.875,45.604z M70.743,30.745c1.354-0.477,2.712-0.96,4.076-1.431    c-0.038,0.942-0.078,1.884-0.108,2.826c-1.352,0.531-2.699,1.078-4.04,1.627C70.695,32.759,70.721,31.753,70.743,30.745z     M70.384,38.644c1.336-0.474,2.667-0.96,4.002-1.438c-0.067,1.407-0.079,2.82-0.248,4.228c-1.038,1.051-2.584,1.361-3.89,1.99    C70.273,41.826,70.33,40.241,70.384,38.644z M69.905,48.246c1.272-0.428,2.55-0.863,3.834-1.292    c-0.091,1.601-0.188,3.204-0.284,4.807c-1.244,0.405-2.494,0.804-3.729,1.196C69.784,51.389,69.838,49.816,69.905,48.246z     M45.193,39.51c1.564-0.546,3.135-1.102,4.716-1.633c0.049,1.238,0.11,2.491,0.175,3.738c-0.992,0.356-1.986,0.712-2.976,1.075    C46.474,41.63,45.839,40.564,45.193,39.51z M50.335,75.515c-0.819,0.271-1.657,0.475-2.506,0.625    c-0.137-1.504-0.779-3.2,0.311-4.518c0.483-1.139,2.06-0.604,3.004-0.954C51.35,72.316,51.646,74.207,50.335,75.515z M82.2,71.16    c-0.525-0.348-1.58-1.063-2.111-1.423c0.118-1.911,1.055-5.471,3.665-4.106C84.969,67.637,83.697,69.771,82.2,71.16z" data-part-id="logo__item--logo_0__1"></path>
		<path fill="#5A5B5B" d="M45.1,52.8c-2.666-4.545-4.991-9.307-7.829-13.748c-3.539,0.329-6.721,2.189-10.206,2.832    c-4.125,0.849-8.964,1.664-12.678-0.849c-1.881-3.451-1.048-7.379,0.075-10.918c-3.46,7.077-7.554,15.568-3.907,23.377    c2.054,4.505,6.728,7.06,11.284,8.405c9.031,2.47,18.597,2.041,27.698,0.194C48.823,58.681,46.733,55.818,45.1,52.8z" data-part-id="logo__item--logo_0__2"></path>
	</g>
</g>

    </g>
</g></svg>