<?xml version="1.0" encoding="UTF-8"?>
<svg width="121" height="92" version="1.1" viewBox="736 408 121 92" xmlns="http://www.w3.org/2000/svg" xmlns:cc="http://creativecommons.org/ns#" xmlns:dc="http://purl.org/dc/elements/1.1/" xmlns:rdf="http://www.w3.org/1999/02/22-rdf-syntax-ns#">
 <metadata>
  <rdf:RDF>
   <cc:Work rdf:about="">
    <dc:format>image/svg+xml</dc:format>
    <dc:type rdf:resource="http://purl.org/dc/dcmitype/StillImage"/>
    <dc:title/>
   </cc:Work>
  </rdf:RDF>
 </metadata>
 <g class="logo__item" transform="translate(-108.55 -2.6734)" data-item="Image" data-item-type="image" data-logo-item="">
  <g class="logo__item__inner" transform="matrix(1.4718 0 0 1.4718 831.57 381.5)">
   <path d="m83.021 80.65c0 0.813-7.778 1.467-17.373 1.467-9.597 0-17.374-0.654-17.374-1.467 0-0.807 7.777-1.461 17.374-1.461 9.594 0 17.373 0.655 17.373 1.461z" fill="#d0d2d3" data-part-id="logo__item--logo_0__0"/>
   <path d="m87.444 65.252c-0.692-1.51-1.184-3.655-3.113-3.968-2.101-0.56-3.949 0.679-5.576 1.83-8.67 6e-3 -16.965 2.982-25.096 5.669-1.485-2.336 0.206-4.854 0.684-7.24 9.607-2.754 19.294-5.229 28.865-8.131 2.902-0.734 2.88-4.152 3.267-6.528 0.912-7.992 1.927-15.988 2.461-24.01 0.196-2.116-2.176-3.062-3.868-2.165-14.106 5.061-28.176 10.224-42.252 15.357-0.943-1.522-1.722-3.155-2.881-4.529-1.419-0.718-2.893 0.157-4.26 0.556-1.894 0.73-3.886 1.316-5.583 2.451-1.247 1.087-0.701 3.563 1.069 3.666 2.113-0.308 4.016-1.618 6.181-1.564 4.786 7.809 8.959 15.997 13.59 23.899-0.815 2.135-0.482 5.173-2.784 6.356-4.976 2.633-5.289 11.924 0.556 13.757 3.398-1.167 5.085-4.461 5.864-7.736 7.337-1.969 14.669-4.509 22.35-4.535 0.515 2.536 1.024 6.406 4.349 6.563 2.513 0.404 3.862-2.062 5.235-3.678 2.276-0.658 4.27-2.262 4.155-4.843-1.072-0.405-2.144-0.79-3.213-1.177zm-33.173-20.744c1.262-0.441 2.523-0.888 3.786-1.332 6e-3 1.416 6e-3 2.823 0.014 4.242-1.219 0.399-2.442 0.788-3.655 1.19-0.056-1.371-0.103-2.735-0.145-4.1zm3.767 11.769c-1.156 0.284-2.316 0.567-3.473 0.863-0.072-1.364-0.136-2.723-0.198-4.088 1.237-0.375 2.475-0.742 3.713-1.135-0.01 1.453-0.023 2.908-0.042 4.36zm21.281-28.533c1.678-0.556 3.354-1.136 5.03-1.715-0.03 0.525-0.103 1.582-0.136 2.113-1.713 0.689-3.409 1.404-5.109 2.135 0.07-0.855 0.142-1.694 0.215-2.533zm-0.658 7.736c1.618-0.641 3.236-1.292 4.864-1.951-0.076 1.643-0.15 3.286-0.238 4.928-1.652 0.665-3.311 1.311-4.967 1.951 0.111-1.643 0.22-3.286 0.341-4.928zm-0.786 10.124c1.58-0.58 3.158-1.132 4.754-1.681-0.122 1.657-0.254 3.315-0.375 4.982-1.57 0.585-3.158 1.12-4.734 1.66 0.108-1.661 0.229-3.309 0.355-4.961zm-7.132-14.859c1.354-0.477 2.712-0.96 4.076-1.431-0.038 0.942-0.078 1.884-0.108 2.826-1.352 0.531-2.699 1.078-4.04 1.627 0.024-1.008 0.05-2.014 0.072-3.022zm-0.359 7.899c1.336-0.474 2.667-0.96 4.002-1.438-0.067 1.407-0.079 2.82-0.248 4.228-1.038 1.051-2.584 1.361-3.89 1.99 0.025-1.598 0.082-3.183 0.136-4.78zm-0.479 9.602c1.272-0.428 2.55-0.863 3.834-1.292-0.091 1.601-0.188 3.204-0.284 4.807-1.244 0.405-2.494 0.804-3.729 1.196 0.058-1.568 0.112-3.141 0.179-4.711zm-24.712-8.736c1.564-0.546 3.135-1.102 4.716-1.633 0.049 1.238 0.11 2.491 0.175 3.738-0.992 0.356-1.986 0.712-2.976 1.075-0.634-1.06-1.269-2.126-1.915-3.18zm5.142 36.005c-0.819 0.271-1.657 0.475-2.506 0.625-0.137-1.504-0.779-3.2 0.311-4.518 0.483-1.139 2.06-0.604 3.004-0.954 0.206 1.648 0.502 3.539-0.809 4.847zm31.865-4.355c-0.525-0.348-1.58-1.063-2.111-1.423 0.118-1.911 1.055-5.471 3.665-4.106 1.215 2.006-0.057 4.14-1.554 5.529z" fill="#4aae48" data-part-id="logo__item--logo_0__1"/>
   <path d="m45.1 52.8c-2.666-4.545-4.991-9.307-7.829-13.748-3.539 0.329-6.721 2.189-10.206 2.832-4.125 0.849-8.964 1.664-12.678-0.849-1.881-3.451-1.048-7.379 0.075-10.918-3.46 7.077-7.554 15.568-3.907 23.377 2.054 4.505 6.728 7.06 11.284 8.405 9.031 2.47 18.597 2.041 27.698 0.194-0.714-3.412-2.804-6.275-4.437-9.293z" fill="#5a5b5b" data-part-id="logo__item--logo_0__2"/>
  </g>
 </g>
</svg>
